<?xml version="1.0" standalone="no"?>
<!DOCTYPE svg PUBLIC "-//W3C//DTD SVG 20010904//EN"
 "http://www.w3.org/TR/2001/REC-SVG-20010904/DTD/svg10.dtd">
<svg version="1.0" xmlns="http://www.w3.org/2000/svg"
 width="488.000000pt" height="482.000000pt" viewBox="0 0 488.000000 482.000000"
 preserveAspectRatio="xMidYMid meet">

<g transform="translate(0.000000,482.000000) scale(0.100000,-0.100000)"
fill="#000000" stroke="none">
<path d="M2238 4513 c12 -2 32 -2 45 0 12 2 2 4 -23 4 -25 0 -35 -2 -22 -4z"/>
<path d="M2358 4513 c6 -2 18 -2 25 0 6 3 1 5 -13 5 -14 0 -19 -2 -12 -5z"/>
<path d="M2423 4513 c15 -2 39 -2 55 0 15 2 2 4 -28 4 -30 0 -43 -2 -27 -4z"/>
<path d="M3601 4264 c0 -11 3 -14 6 -6 3 7 2 16 -1 19 -3 4 -6 -2 -5 -13z"/>
<path d="M1254 4088 l-19 -23 23 19 c21 18 27 26 19 26 -2 0 -12 -10 -23 -22z"/>
<path d="M1129 3963 l-24 -28 28 24 c25 23 32 31 24 31 -2 0 -14 -12 -28 -27z"/>
<path d="M1414 3948 l-19 -23 23 19 c21 18 27 26 19 26 -2 0 -12 -10 -23 -22z"/>
<path d="M848 3780 c-165 -6 -183 -13 -225 -86 l-23 -39 0 -1098 c0 -1200 -3
-1136 57 -1199 l27 -28 -167 0 -167 0 0 -48 c0 -104 49 -194 122 -221 19 -7
655 -11 1942 -12 l1915 -1 43 23 c61 35 96 96 104 187 l7 72 -157 0 c-86 0
-156 3 -156 8 0 4 8 12 19 19 10 6 28 31 40 55 l21 44 0 1098 c0 1073 0 1098
-20 1136 -23 46 -67 79 -112 86 -45 6 -3087 10 -3270 4z m3207 -195 l25 -24 0
-1030 0 -1029 -31 -26 -31 -26 -1600 0 -1600 0 -29 29 -29 29 0 1016 c0 725 3
1022 11 1040 6 13 21 29 33 34 14 7 542 11 1624 11 l1603 1 24 -25z m-1085
-2270 c0 -23 -25 -67 -50 -90 -21 -19 -39 -20 -494 -23 -325 -2 -483 0 -509 8
-41 12 -77 57 -77 98 l0 22 565 0 c504 0 565 -2 565 -15z"/>
<path d="M1505 3491 c-100 -26 -185 -93 -227 -179 -39 -81 -37 -199 6 -302 4
-11 -27 -34 -125 -90 -133 -76 -180 -117 -205 -176 -34 -80 -3 -185 69 -232
32 -21 52 -27 97 -27 l58 0 -23 -50 c-103 -228 -139 -301 -168 -341 l-32 -46
0 -126 c0 -122 1 -130 32 -194 54 -114 148 -185 275 -208 37 -7 438 -10 1159
-8 l1104 3 57 23 c74 30 160 108 192 175 45 93 47 141 44 812 l-3 630 -23 58
c-29 70 -107 153 -174 186 -26 12 -79 27 -117 32 -39 6 -340 8 -712 7 -625 -3
-645 -4 -679 -23 -59 -34 -80 -91 -80 -212 0 -114 11 -153 55 -193 l27 -25
613 -5 c572 -5 616 -6 632 -23 17 -16 18 -51 21 -467 2 -394 1 -454 -13 -480
-21 -41 -49 -50 -153 -50 l-87 0 85 49 c133 75 130 68 130 346 0 302 9 282
-195 412 -189 120 -246 147 -291 140 -19 -3 -126 -51 -239 -106 -185 -91 -207
-104 -232 -142 l-28 -43 0 -247 0 -247 25 -27 c14 -14 62 -49 107 -77 46 -28
83 -52 83 -54 0 -2 -111 -4 -246 -4 l-246 0 26 30 c57 69 49 130 -43 329 -39
85 -71 158 -71 163 0 5 15 6 33 3 136 -26 257 129 204 258 -26 60 -69 97 -205
178 -76 44 -138 82 -140 84 -2 1 5 22 15 46 12 30 18 70 18 124 0 67 -5 89
-28 137 -52 106 -160 176 -284 183 -37 2 -81 1 -98 -4z m22 -97 c-3 -3 -12 -4
-19 -1 -8 3 -5 6 6 6 11 1 17 -2 13 -5z m130 0 c-3 -3 -12 -4 -19 -1 -8 3 -5
6 6 6 11 1 17 -2 13 -5z m-182 -16 c-11 -6 -27 -16 -35 -22 -9 -6 -5 -1 8 12
13 12 28 22 35 22 7 0 3 -6 -8 -12z m296 -55 c8 -9 -5 -2 -28 17 -24 18 -43
35 -43 37 0 7 56 -35 71 -54z m659 -118 l0 -145 -139 0 c-114 0 -143 3 -155
16 -13 12 -16 39 -16 126 0 152 -5 148 172 148 l138 0 0 -145z m370 0 l0 -145
-147 2 -148 2 143 3 142 4 0 134 0 134 -142 4 -143 3 148 2 147 2 0 -145z
m370 0 l0 -145 -145 0 -145 0 0 145 0 145 145 0 145 0 0 -145z m371 130 c24
-9 55 -24 69 -35 l25 -19 -120 -121 -120 -120 -35 10 c-19 5 -52 10 -72 10
l-38 0 0 145 0 145 123 0 c85 0 137 -5 168 -15z m-2141 -19 c0 -2 -8 -10 -17
-17 -16 -13 -17 -12 -4 4 13 16 21 21 21 13z m404 -42 c3 -8 2 -12 -4 -9 -6 3
-10 10 -10 16 0 14 7 11 14 -7z m-447 -36 c-3 -8 -6 -5 -6 6 -1 11 2 17 5 13
3 -3 4 -12 1 -19z m-10 -100 c-2 -18 -4 -6 -4 27 0 33 2 48 4 33 2 -15 2 -42
0 -60z m480 15 c-2 -16 -4 -5 -4 22 0 28 2 40 4 28 2 -13 2 -35 0 -50z m1903
-143 l5 -160 -136 0 -136 0 -7 68 -6 67 115 114 116 115 22 -22 c20 -21 22
-34 27 -182z m-2331 6 c-3 -3 -11 5 -18 17 -13 21 -12 21 5 5 10 -10 16 -20
13 -22z m360 -12 c-24 -25 -24 -26 -5 -40 11 -8 15 -14 9 -14 -6 0 -16 7 -23
15 -11 13 -9 20 10 40 13 14 26 25 28 25 3 0 -5 -12 -19 -26z m-399 -79 c0 -2
-18 -14 -40 -25 -22 -11 -40 -18 -40 -15 0 2 17 13 38 24 42 23 42 23 42 16z
m550 -51 c0 -2 -13 2 -30 11 -16 9 -30 18 -30 21 0 2 14 -2 30 -11 17 -9 30
-18 30 -21z m1164 -159 c80 -49 145 -94 145 -100 0 -16 -325 -195 -354 -195
-25 0 -365 214 -365 230 0 4 26 20 58 35 196 95 280 133 297 137 30 7 59 -8
219 -107z m-1934 90 c0 -2 -10 -9 -22 -15 -22 -11 -22 -10 -4 4 21 17 26 19
26 11z m-50 -29 c0 -2 -8 -10 -17 -17 -16 -13 -17 -12 -4 4 13 16 21 21 21 13z
m2640 -23 c0 -5 -58 -7 -130 -5 l-129 3 -4 -128 -3 -128 -2 133 -2 132 135 0
c74 0 135 -3 135 -7z m-2677 -28 c-3 -9 -8 -14 -10 -11 -3 3 -2 9 2 15 9 16
15 13 8 -4z m1097 -54 c0 -45 -6 -37 -13 18 -4 29 -2 40 4 30 5 -7 9 -29 9
-48z m-1085 -71 c10 -11 16 -20 13 -20 -3 0 -13 9 -23 20 -10 11 -16 20 -13
20 3 0 13 -9 23 -20z m211 -12 c19 -23 19 -23 -1 -6 -11 9 -31 18 -45 21 l-25
4 26 2 c16 0 33 -8 45 -21z m703 11 c48 -17 33 -19 -24 -4 -27 8 -41 14 -29
14 12 1 35 -4 53 -10z m-79 -3 c0 -2 -8 -10 -17 -17 -16 -13 -17 -12 -4 4 13
16 21 21 21 13z m1827 -18 c-3 -8 -6 -5 -6 6 -1 11 2 17 5 13 3 -3 4 -12 1
-19z m-2594 -5 c-7 -2 -21 -2 -30 0 -10 3 -4 5 12 5 17 0 24 -2 18 -5z m940 0
c-7 -2 -21 -2 -30 0 -10 3 -4 5 12 5 17 0 24 -2 18 -5z m460 -50 c40 -27 117
-75 170 -108 l96 -60 1 -212 c0 -149 -3 -213 -11 -213 -16 0 -299 177 -331
208 l-28 26 0 203 c0 172 2 203 15 203 8 0 47 -21 88 -47z m-666 5 c-3 -7 -5
-2 -5 12 0 14 2 19 5 13 2 -7 2 -19 0 -25z m1860 -15 c-3 -10 -5 -4 -5 12 0
17 2 24 5 18 2 -7 2 -21 0 -30z m-469 -176 c2 -180 2 -186 -20 -211 -28 -31
-336 -209 -349 -201 -5 4 -9 94 -9 203 l0 198 178 102 c97 56 182 100 187 98
6 -1 11 -76 13 -189z m-2012 76 c-14 -26 -25 -45 -26 -41 0 12 43 98 48 94 2
-2 -8 -26 -22 -53z m674 2 c0 -5 -5 -3 -10 5 -5 8 -10 20 -10 25 0 6 5 3 10
-5 5 -8 10 -19 10 -25z m1748 -4 l72 -1 0 -135 0 -135 -140 0 -140 0 0 138 0
137 68 -1 c37 -1 100 -2 140 -3z m-2075 -148 c-7 -2 -19 -2 -25 0 -7 3 -2 5
12 5 14 0 19 -2 13 -5z m417 -48 c0 -5 -5 -3 -10 5 -5 8 -10 20 -10 25 0 6 5
3 10 -5 5 -8 10 -19 10 -25z m-886 -85 c-4 -18 -1 -36 6 -45 8 -9 8 -15 2 -15
-15 0 -25 37 -18 66 9 34 17 30 10 -6z m346 22 c0 -5 -7 -17 -15 -28 -14 -18
-14 -17 -4 9 12 27 19 34 19 19z m228 -27 c-3 -3 -9 2 -12 12 -6 14 -5 15 5 6
7 -7 10 -15 7 -18z m23 -32 c13 -16 12 -17 -3 -4 -10 7 -18 15 -18 17 0 8 8 3
21 -13z m320 -16 c-10 -9 -11 -8 -5 6 3 10 9 15 12 12 3 -3 0 -11 -7 -18z
m1699 -84 c0 -38 -4 -95 -10 -128 -10 -66 -47 -155 -64 -155 -6 0 -62 51 -125
114 l-113 113 16 47 c9 26 16 53 16 61 0 13 24 15 140 15 l140 0 0 -67z
m-1843 51 c-3 -3 -12 -4 -19 -1 -8 3 -5 6 6 6 11 1 17 -2 13 -5z m-713 -89
c153 -24 146 -21 146 -58 0 -28 -14 -47 -99 -131 l-98 -98 -27 29 c-37 39 -67
125 -74 206 l-5 67 28 0 c15 0 73 -7 129 -15z m2301 -185 c114 -114 118 -120
100 -134 -33 -24 -106 -41 -180 -41 l-70 0 -3 148 c-2 136 -1 147 15 147 10 0
72 -54 138 -120z m-1675 -35 l0 -146 -142 3 -143 3 -3 143 -3 142 146 0 145 0
0 -145z m720 0 l0 -146 -137 3 -138 3 -3 143 -3 142 141 0 140 0 0 -145z m211
125 c27 -12 66 -20 102 -20 l57 0 0 -125 0 -126 -142 3 -143 3 -3 143 -3 142
45 0 c24 0 63 -9 87 -20z m-840 -124 c0 -71 -2 -131 -5 -134 -3 -3 -6 57 -6
133 0 76 2 136 5 133 3 -2 5 -62 6 -132z m266 -68 c-1 -40 -3 -10 -3 67 0 77
1 110 3 73 2 -37 2 -100 0 -140z m820 180 c-3 -8 -6 -5 -6 6 -1 11 2 17 5 13
3 -3 4 -12 1 -19z m260 -180 c-1 -40 -3 -10 -3 67 0 77 1 110 3 73 2 -37 2
-100 0 -140z m-1807 57 l0 -135 -92 6 c-90 6 -138 16 -138 31 0 7 221 233 227
233 2 0 3 -61 3 -135z"/>
<path d="M2820 2661 c-24 -45 -5 -81 42 -81 18 0 33 8 44 25 15 23 15 27 0 50
-21 31 -70 35 -86 6z"/>
<path d="M2670 2301 c-17 -32 -11 -60 15 -77 49 -32 104 23 75 75 -15 28 -75
29 -90 2z"/>
<path d="M2526 2274 c-22 -21 -20 -57 3 -78 26 -24 62 -17 80 15 13 24 13 29
-2 53 -20 30 -57 35 -81 10z"/>
<path d="M3098 2359 c-36 -20 -13 -99 28 -99 34 0 54 20 54 55 0 47 -40 69
-82 44z"/>
<path d="M2970 2180 c-11 -11 -20 -26 -20 -33 0 -24 31 -57 55 -57 50 0 73 60
37 93 -25 22 -48 21 -72 -3z"/>
<path d="M1398 973 c7 -3 16 -2 19 1 4 3 -2 6 -13 5 -11 0 -14 -3 -6 -6z"/>
<path d="M1468 963 c7 -3 16 -2 19 1 4 3 -2 6 -13 5 -11 0 -14 -3 -6 -6z"/>
<path d="M1538 953 c7 -3 16 -2 19 1 4 3 -2 6 -13 5 -11 0 -14 -3 -6 -6z"/>
<path d="M3509 843 c-13 -16 -12 -17 4 -4 16 13 21 21 13 21 -2 0 -10 -8 -17
-17z"/>
<path d="M3449 793 c-13 -16 -12 -17 4 -4 16 13 21 21 13 21 -2 0 -10 -8 -17
-17z"/>
<path d="M2108 653 c7 -3 16 -2 19 1 4 3 -2 6 -13 5 -11 0 -14 -3 -6 -6z"/>
<path d="M2698 653 c7 -3 16 -2 19 1 4 3 -2 6 -13 5 -11 0 -14 -3 -6 -6z"/>
<path d="M2168 643 c6 -2 18 -2 25 0 6 3 1 5 -13 5 -14 0 -19 -2 -12 -5z"/>
<path d="M2248 633 c7 -3 16 -2 19 1 4 3 -2 6 -13 5 -11 0 -14 -3 -6 -6z"/>
<path d="M2528 633 c7 -3 16 -2 19 1 4 3 -2 6 -13 5 -11 0 -14 -3 -6 -6z"/>
<path d="M1604 418 l-19 -23 23 19 c21 18 27 26 19 26 -2 0 -12 -10 -23 -22z"/>
</g>
</svg>
